<?xml version="1.0" standalone="no"?>
<!DOCTYPE svg PUBLIC "-//W3C//DTD SVG 20010904//EN"
 "http://www.w3.org/TR/2001/REC-SVG-20010904/DTD/svg10.dtd">
<svg version="1.0" xmlns="http://www.w3.org/2000/svg"
 width="1024.000000pt" height="1024.000000pt" viewBox="0 0 1024.000000 1024.000000"
 preserveAspectRatio="xMidYMid meet">

<g transform="translate(0.000000,1024.000000) scale(0.100000,-0.100000)"
fill="#000000" stroke="none">
<path d="M3020 6145 l0 -795 493 0 493 0 34 35 c46 47 120 71 175 56 92 -25
145 -83 145 -159 0 -50 -19 -92 -55 -120 l-25 -20 152 -4 c141 -3 157 -5 210
-30 77 -36 122 -73 162 -133 82 -123 95 -273 35 -412 -28 -66 -109 -146 -182
-179 l-62 -29 -497 -3 -498 -3 0 396 0 395 218 0 218 0 -4 35 -4 35 -504 0
-504 0 0 -695 0 -696 893 4 c888 3 892 3 977 25 157 42 326 141 414 244 128
148 206 351 206 534 l0 64 295 0 295 0 11 -27 c25 -66 83 -103 162 -103 44 0
62 5 95 30 53 38 72 76 72 142 -1 136 -132 218 -251 157 -22 -11 -49 -36 -61
-55 l-20 -34 -299 0 -299 0 -5 28 c-19 90 -71 228 -111 295 -55 94 -170 218
-248 267 -31 19 -56 37 -56 40 0 3 21 18 48 35 71 45 174 152 220 231 22 38
53 107 69 154 26 79 28 97 28 240 0 171 -12 235 -65 348 -72 154 -202 301
-339 382 -88 53 -216 97 -313 110 -41 5 -434 10 -895 10 l-823 0 0 -795z
m1631 244 c112 -53 176 -133 204 -254 38 -162 -37 -327 -181 -400 l-59 -30
-507 -3 -508 -3 0 361 0 361 498 -3 497 -3 56 -26z m1715 -1524 c43 -33 64
-78 64 -140 0 -32 -6 -51 -20 -65 -11 -11 -17 -20 -13 -20 3 0 -2 -10 -13 -21
-25 -29 -75 -49 -119 -49 -41 0 -99 26 -90 40 3 6 -1 7 -9 4 -21 -8 -20 6 3
36 14 17 17 29 10 41 -5 10 -11 36 -13 59 -4 51 -7 54 -40 39 -20 -9 -26 -19
-24 -40 1 -18 6 -25 13 -19 16 13 46 -13 34 -31 -5 -8 -9 -21 -9 -29 0 -12 2
-13 9 -1 5 7 13 12 19 10 7 -3 3 -14 -8 -29 l-19 -25 -16 40 -16 40 -252 0
c-139 0 -272 2 -297 5 -43 5 -45 6 -48 40 l-3 35 296 0 296 0 36 44 c20 24 51
50 67 57 47 22 118 12 162 -21z"/>
<path d="M6244 4872 c3 -5 -5 -8 -17 -7 -12 1 -28 -5 -35 -14 -8 -9 -10 -10
-7 -3 6 11 3 12 -13 3 -25 -13 -38 -43 -15 -34 9 4 14 2 10 -3 -12 -21 33 -11
58 12 14 13 34 24 43 24 15 0 15 -2 2 -10 -12 -8 -12 -10 -1 -10 8 0 20 8 27
18 11 14 15 15 23 3 17 -25 2 -40 -35 -34 -23 4 -42 0 -61 -13 -16 -10 -30
-18 -33 -17 -3 1 -3 -23 0 -54 7 -63 25 -83 76 -83 50 0 88 37 86 85 -1 21 -9
46 -17 55 -9 10 -12 20 -7 23 12 8 39 -26 34 -42 -3 -8 0 -11 5 -8 11 7 9 -20
-3 -62 -5 -17 -4 -22 4 -17 8 5 10 2 6 -9 -4 -9 -8 -14 -11 -11 -5 4 -53 -41
-53 -51 0 -3 7 -2 16 1 14 5 15 4 4 -9 -19 -23 2 -18 35 10 24 19 26 24 12 25
-16 0 -17 2 -3 15 8 8 20 15 26 15 7 0 10 6 7 14 -3 7 0 19 6 25 8 8 5 11 -13
11 -20 0 -22 2 -10 10 9 6 11 10 3 10 -7 0 -10 7 -7 15 6 14 8 13 19 -2 12
-16 13 -15 8 10 -3 15 -12 27 -19 27 -17 0 -19 17 -3 22 21 7 -45 61 -79 64
-20 3 -31 0 -27 -6 3 -6 -1 -10 -10 -10 -9 0 -13 5 -10 10 3 6 -1 10 -10 10
-9 0 -14 -4 -11 -8z m70 -83 c52 -41 19 -129 -50 -129 -62 0 -88 90 -38 129
15 12 34 21 44 21 10 0 29 -9 44 -21z"/>
<path d="M5530 4748 l0 -28 115 1 c65 0 115 4 115 10 0 5 -6 9 -12 9 -7 1 1 7
17 15 l30 13 -35 1 c-20 1 -42 -5 -49 -11 -9 -9 -12 -9 -7 -1 4 8 -18 12 -84
15 l-90 3 0 -27z"/>
<path d="M5834 4755 c33 -18 39 -19 31 -5 -3 6 3 10 14 10 28 0 27 -18 -1 -29
-16 -6 14 -9 90 -10 86 0 112 3 112 13 0 7 -7 13 -15 13 -8 0 -15 -4 -15 -9 0
-5 -6 -3 -14 4 -8 7 -12 16 -10 20 2 3 -13 6 -34 6 -33 0 -35 -1 -14 -11 12
-5 22 -14 22 -19 0 -10 -14 -11 -24 -1 -12 12 -40 12 -48 0 -5 -8 -8 -7 -8 5
0 9 8 19 18 21 9 3 -17 5 -58 6 -72 1 -74 0 -46 -14z"/>
<path d="M6045 4761 c-3 -6 4 -8 16 -6 30 6 37 15 11 15 -11 0 -23 -4 -27 -9z"/>
<path d="M5800 4747 c0 -2 6 -10 14 -16 11 -9 16 -9 22 1 4 7 4 10 -1 6 -4 -4
-14 -3 -22 3 -7 6 -13 9 -13 6z"/>
<path d="M6301 4644 c-19 -8 -42 -12 -51 -9 -11 3 -17 0 -17 -11 0 -9 9 -19
19 -22 10 -2 15 -8 12 -13 -3 -5 4 -9 15 -9 11 0 23 4 26 10 3 5 0 7 -8 4 -8
-3 -14 1 -14 10 0 8 3 14 6 12 3 -1 17 8 30 21 28 27 27 27 -18 7z"/>
<path d="M6206 4635 c-9 -26 -7 -32 5 -12 6 10 9 21 6 23 -2 3 -7 -2 -11 -11z"/>
<path d="M5095 6932 c6 -5 30 -17 54 -26 66 -25 149 -86 221 -162 83 -87 104
-117 161 -229 l46 -90 339 -5 339 -5 60 -32 c74 -38 138 -105 173 -181 23 -49
27 -70 27 -148 -1 -82 -4 -97 -33 -156 -38 -77 -92 -130 -171 -167 l-56 -26
-350 -3 -351 -3 -31 -52 c-42 -70 -105 -141 -159 -178 l-44 -30 49 -39 c77
-61 125 -115 167 -190 l39 -68 360 -4 360 -3 67 -32 c82 -39 152 -107 193
-188 28 -55 30 -68 30 -165 0 -93 -3 -111 -27 -163 -55 -116 -128 -181 -246
-217 -58 -18 -94 -20 -362 -20 -189 0 -301 -4 -305 -10 -3 -5 3 -10 14 -10 22
0 30 -20 9 -21 -12 0 -73 -113 -73 -134 0 -5 -6 -14 -13 -18 -20 -13 -72 -99
-66 -109 3 -5 0 -7 -8 -6 -7 2 -12 -3 -10 -10 1 -8 -1 -11 -6 -8 -5 3 -21 -8
-36 -23 -18 -19 -24 -31 -17 -36 6 -3 9 -11 5 -16 -4 -6 -10 -6 -19 1 -9 8
-21 4 -44 -16 -17 -14 -29 -29 -26 -34 3 -4 -2 -11 -11 -14 -8 -3 -12 -10 -9
-16 4 -6 11 -8 16 -5 5 4 9 1 9 -4 0 -14 -6 -14 -30 -1 -27 14 -19 36 26 68
55 41 120 107 172 177 48 65 115 191 110 206 -2 5 -20 -25 -40 -68 -78 -162
-205 -292 -366 -377 l-87 -46 660 3 c725 4 718 3 885 68 212 81 395 254 482
454 79 179 95 411 43 610 -50 190 -201 386 -375 486 -33 19 -60 36 -60 39 0 3
16 14 36 25 65 35 180 169 223 259 58 119 75 211 68 365 -7 170 -47 294 -140
431 -94 138 -262 264 -427 322 -147 51 -145 51 -820 55 -382 3 -631 1 -625 -5z
m1290 -23 c419 -73 715 -412 715 -818 0 -208 -73 -380 -219 -519 -44 -42 -131
-96 -116 -73 3 6 23 20 43 30 43 22 114 95 104 107 -4 4 -2 4 5 0 12 -7 76 77
76 101 0 7 2 11 5 8 8 -8 53 98 47 112 -3 9 0 11 7 7 7 -5 9 -2 5 9 -3 9 -2
17 3 19 23 8 33 228 16 343 -11 77 -67 220 -81 207 -5 -4 -5 -2 -1 5 9 16 -14
64 -27 56 -6 -3 -7 -2 -4 4 4 6 -11 34 -33 63 -22 30 -40 49 -41 44 0 -5 -4 1
-10 14 -5 14 -13 20 -20 16 -7 -4 -9 -3 -6 3 6 9 -54 73 -67 73 -3 0 -16 10
-29 23 -29 26 -174 100 -237 121 -138 45 -155 46 -746 46 -456 0 -563 -2 -552
-13 21 -20 68 -48 68 -41 0 4 11 -5 24 -21 16 -18 28 -25 37 -20 8 5 11 5 7 1
-9 -11 23 -46 36 -39 6 3 8 3 4 -2 -11 -12 10 -45 29 -45 9 0 14 -3 10 -6 -3
-4 0 -13 8 -20 17 -17 29 -18 19 -2 -4 6 -3 8 4 5 5 -4 8 -15 5 -25 -3 -13 4
-25 22 -36 15 -10 24 -23 22 -30 -3 -7 4 -23 14 -37 10 -13 19 -28 19 -34 0
-5 8 -29 17 -51 l17 -42 103 0 c70 0 103 4 103 12 0 8 2 8 8 0 6 -10 30 -12
147 -15 79 -2 96 1 89 12 -5 8 -1 8 14 0 26 -14 93 -12 85 3 -4 6 1 5 11 -3 9
-8 41 -18 69 -22 29 -3 70 -15 92 -24 22 -10 46 -17 54 -16 7 1 10 -2 6 -8 -5
-10 7 -15 27 -12 5 0 7 -2 6 -7 -2 -4 18 -29 44 -57 26 -27 45 -52 42 -54 -3
-3 -25 18 -50 47 -30 34 -67 62 -112 84 l-67 33 -337 3 -337 3 -10 32 c-20 60
-107 197 -169 266 -64 71 -164 150 -230 179 -36 16 -11 17 557 14 360 -1 620
-6 656 -13z m-1105 -19 c0 -5 -7 -7 -15 -4 -8 4 -15 8 -15 10 0 2 7 4 15 4 8
0 15 -4 15 -10z m1075 0 c3 -5 1 -10 -4 -10 -6 0 -11 5 -11 10 0 6 2 10 4 10
3 0 8 -4 11 -10z m-840 -230 c3 -6 -1 -7 -9 -4 -18 7 -21 14 -7 14 6 0 13 -4
16 -10z m1001 -458 c15 -36 35 -232 24 -232 -3 0 -14 -25 -25 -55 -10 -30 -23
-55 -28 -55 -6 0 -7 -3 -4 -7 4 -3 -3 -18 -15 -31 -18 -20 -19 -24 -6 -19 14
5 17 1 16 -17 -2 -21 -4 -22 -23 -10 -18 11 -24 9 -52 -16 -17 -15 -28 -32
-25 -36 4 -4 1 -4 -5 0 -14 8 -57 -17 -47 -27 3 -3 -3 -3 -15 0 -12 3 -21 1
-21 -3 0 -14 -26 -15 -385 -20 l-341 -5 -29 -47 c-38 -60 -41 -67 -24 -56 12
7 12 5 0 -9 -15 -18 -26 -23 -16 -7 11 19 -7 10 -27 -12 -11 -13 -9 -7 6 12
14 19 38 56 53 82 l28 48 308 0 c249 0 322 3 380 16 130 30 221 113 272 247
23 62 17 190 -14 260 -11 26 -16 45 -11 42 6 -4 17 -23 26 -43z m398 -534 c-3
-4 -11 -5 -19 -1 -21 7 -19 12 4 10 11 0 18 -5 15 -9z m-1507 -193 c-22 -18
-36 -39 -32 -45 3 -5 11 -8 16 -4 5 3 8 0 7 -8 -2 -7 6 -13 16 -13 11 0 20 -8
22 -18 3 -22 7 -27 26 -32 39 -9 57 -18 52 -26 -3 -5 -10 -7 -15 -4 -5 4 -9 1
-9 -4 0 -6 3 -11 8 -11 4 0 22 -25 40 -55 18 -30 40 -55 49 -55 9 0 13 -6 9
-15 -5 -13 11 -15 109 -15 98 0 116 3 125 18 11 16 11 16 6 0 -3 -12 0 -18 10
-18 8 0 13 4 10 9 -3 5 1 11 9 15 10 3 15 -1 15 -11 0 -14 3 -14 20 2 18 17
20 17 14 2 -5 -13 -1 -17 16 -17 11 0 18 5 15 10 -3 6 -1 10 4 10 6 0 11 -5
11 -10 0 -6 28 -9 69 -8 39 1 69 6 68 11 -1 5 4 12 11 14 7 3 11 -1 10 -7 -2
-7 6 -14 17 -16 11 -2 35 -6 53 -10 21 -4 38 -2 49 7 12 10 15 10 9 1 -6 -10
2 -11 36 -7 26 3 36 2 24 -3 -15 -7 -11 -10 25 -21 24 -7 58 -21 74 -31 17 -9
36 -16 43 -15 7 2 8 1 2 -2 -12 -5 29 -40 42 -35 5 1 7 -4 5 -11 -1 -6 4 -11
10 -10 7 2 12 -3 10 -10 -1 -6 4 -11 11 -9 8 1 11 -2 7 -7 -3 -6 3 -19 15 -31
11 -11 18 -20 15 -20 -3 0 3 -17 13 -37 31 -62 45 -139 38 -210 -4 -36 -3 -62
2 -59 5 3 9 -1 9 -8 0 -8 -6 -12 -14 -9 -7 3 -13 -2 -13 -11 0 -19 -42 -110
-53 -114 -4 -2 -2 -11 5 -20 10 -12 10 -14 0 -8 -8 5 -35 -13 -74 -48 -34 -31
-65 -56 -70 -56 -4 0 -9 -10 -9 -22 -1 -18 -2 -19 -6 -5 -5 20 -36 15 -64 -9
-9 -9 -24 -12 -34 -8 -10 4 -16 3 -13 -2 4 -5 -14 -7 -40 -5 l-47 5 50 7 c185
29 314 152 354 337 14 69 -1 176 -35 246 -30 61 -100 137 -158 171 -84 49
-134 55 -491 55 l-330 1 -45 76 c-29 48 -71 100 -119 144 l-74 69 28 22 c53
42 60 47 65 47 3 0 -12 -15 -33 -34z m1363 -10 c7 -8 19 -15 26 -15 27 0 139
-84 209 -156 82 -84 153 -202 192 -319 25 -74 27 -93 27 -255 1 -200 -10 -262
-74 -395 -44 -92 -135 -212 -206 -271 -58 -48 -93 -68 -47 -27 25 23 30 32 21
41 -9 9 -9 12 0 12 7 0 12 -5 12 -12 0 -6 11 -1 25 12 13 12 22 27 18 33 -3 6
-1 7 4 4 13 -8 36 17 25 28 -4 5 -2 5 5 1 14 -8 45 33 36 47 -3 6 -1 7 5 3 6
-4 22 13 38 41 16 27 32 51 37 54 5 3 7 8 6 10 -2 2 5 16 14 30 34 51 70 217
73 337 2 75 -1 112 -8 112 -6 0 -5 7 3 17 8 9 10 14 4 11 -6 -4 -11 16 -12 50
-2 31 -12 89 -24 129 -19 64 -24 72 -38 61 -14 -11 -14 -11 -3 4 12 15 8 26
-27 85 -46 78 -104 148 -123 148 -7 0 -13 6 -13 13 0 17 -74 84 -85 77 -4 -3
-10 2 -13 10 -4 8 -33 28 -66 44 -33 17 -62 35 -66 41 -10 16 11 12 25 -5z
m-480 -279 c0 -2 -7 -6 -15 -10 -8 -3 -15 -1 -15 4 0 6 7 10 15 10 8 0 15 -2
15 -4z m350 -376 c0 -11 -2 -20 -4 -20 -2 0 -6 9 -9 20 -3 11 -1 20 4 20 5 0
9 -9 9 -20z m-30 -230 c0 -5 -5 -10 -11 -10 -5 0 -7 5 -4 10 3 6 8 10 11 10 2
0 4 -4 4 -10z m-893 -256 c-3 -3 -12 -4 -19 -1 -8 3 -5 6 6 6 11 1 17 -2 13
-5z m230 0 c-3 -3 -12 -4 -19 -1 -8 3 -5 6 6 6 11 1 17 -2 13 -5z m908 -334
c-9 -15 -93 -58 -175 -89 -165 -64 -172 -65 -865 -69 l-630 -3 57 30 c32 17
60 31 62 31 6 0 2 -23 -8 -38 -7 -11 6 -12 65 -8 41 3 243 5 449 5 635 0 595
-1 758 28 18 3 35 10 38 14 3 5 14 9 26 9 16 0 18 3 9 13 -8 11 -7 13 7 12 9
0 22 -4 28 -8 14 -8 56 21 49 34 -4 5 -3 9 2 10 4 0 16 2 26 4 10 2 14 -1 11
-7 -4 -6 -1 -8 7 -6 8 3 13 10 12 16 -1 5 8 8 20 6 12 -2 16 -1 8 2 -9 4 -10
9 -3 13 17 10 53 11 47 1z m-658 -15 c0 -8 -4 -12 -9 -9 -5 3 -6 10 -3 15 9
13 12 11 12 -6z m553 11 c0 -2 -7 -7 -16 -10 -8 -3 -12 -2 -9 4 6 10 25 14 25
6z m-150 -86 c0 -5 -4 -10 -10 -10 -5 0 -10 5 -10 10 0 6 5 10 10 10 6 0 10
-4 10 -10z"/>
<path d="M6737 3946 c-4 -10 -1 -13 8 -9 8 3 12 9 9 14 -7 12 -11 11 -17 -5z"/>
<path d="M4126 5319 c-52 -41 -23 -129 44 -129 67 0 96 88 44 129 -15 12 -34
21 -44 21 -10 0 -29 -9 -44 -21z"/>
</g>
</svg>
